<?xml version="1.0" encoding="utf-8"?>
<!-- Generator: Adobe Illustrator 21.0.0, SVG Export Plug-In . SVG Version: 6.00 Build 0)  -->
<svg version="1.1" id="图层_1" xmlns="http://www.w3.org/2000/svg" xmlns:xlink="http://www.w3.org/1999/xlink" x="0px" y="0px"
	 viewBox="0 0 40 40" style="enable-background:new 0 0 40 40;" xml:space="preserve">
<style type="text/css">
	.st0{fill:#999899;}
</style>
<title>icons/X</title>
<desc>Created with Sketch.</desc>
<g>
	<g>
		<path id="SVGID_1_" class="st0" d="M13.4,9.4L4.9,0.8C3.8-0.3,2-0.3,0.8,0.8c-1.1,1.1-1.1,2.9,0,4.1l8.5,8.5
			c1.1,1.1,2.9,1.1,4.1,0C14.6,12.3,14.6,10.5,13.4,9.4z M39.1,35.1l-8.6-8.5c-1.1-1.1-2.9-1.1-4,0s-1.1,3,0,4.1l8.6,8.5
			c1.1,1.1,2.9,1.1,4,0C40.3,38.1,40.3,36.3,39.1,35.1z M35.1,0.8L0.8,35.2c-1.1,1.1-1.1,2.9,0,4s2.9,1.1,4,0L39.2,4.9
			c1.1-1.1,1.1-2.9,0-4C38.1-0.3,36.3-0.3,35.1,0.8z"/>
	</g>
</g>
</svg>
