<?xml version="1.0" encoding="utf-8"?>
<!-- Generator: Adobe Illustrator 24.2.0, SVG Export Plug-In . SVG Version: 6.00 Build 0)  -->
<svg version="1.1" id="图层_1" xmlns="http://www.w3.org/2000/svg" xmlns:xlink="http://www.w3.org/1999/xlink" x="0px" y="0px"
	 viewBox="0 0 36 36" style="enable-background:new 0 0 36 36;" xml:space="preserve">
<style type="text/css">
	.st0{fill:url(#Combined-Shape_1_);}
	.st1{fill:#F87398;}
	.st2{fill:#6089F6;}
	.st3{fill:#96D997;}
	.st4{fill:#E65C73;}
	.st5{fill:#FFF6C5;}
</style>
<desc>Created with Sketch.</desc>
<g>
	
		<linearGradient id="Combined-Shape_1_" gradientUnits="userSpaceOnUse" x1="-913.078" y1="541.801" x2="-912.1524" y2="541.2098" gradientTransform="matrix(33.6983 0 0 -30.6924 30770.2695 16641.3535)">
		<stop  offset="0" style="stop-color:#FFEA80"/>
		<stop  offset="1" style="stop-color:#FFC44C"/>
	</linearGradient>
	<path id="Combined-Shape" class="st0" d="M27.3,14.2l6.2-1.8c0.5-0.2,1.1,0.1,1.2,0.7c0,0.1,0,0.3,0,0.4L33,31c0,2.8-6.7,5-15,5
		S3,33.8,3,31L1.2,13.5c-0.1-0.5,0.3-1,0.9-1.1c0.1,0,0.3,0,0.4,0l6.2,1.8l8.6-8.6c0.4-0.4,1-0.4,1.4,0L27.3,14.2z"/>
	<circle id="Oval" class="st1" cx="18" cy="2" r="2"/>
	<circle id="Oval-Copy" class="st2" cx="1.5" cy="9.5" r="1.5"/>
	<circle id="Oval-Copy-2" class="st3" cx="34.5" cy="9.5" r="1.5"/>
	<circle id="Oval_2_" class="st4" cx="18" cy="24.3" r="4"/>
	<path class="st5" d="M18,30.3c-3.3,0-6-2.7-6-6s2.7-6,6-6s6,2.7,6,6S21.3,30.3,18,30.3z M18,20.3c-2.2,0-4,1.8-4,4s1.8,4,4,4
		c2.2,0,4-1.8,4-4S20.2,20.3,18,20.3z"/>
</g>
</svg>
