<?xml version="1.0" encoding="utf-8"?>
<!-- Generator: Adobe Illustrator 24.2.0, SVG Export Plug-In . SVG Version: 6.00 Build 0)  -->
<svg version="1.1" id="图层_1" xmlns="http://www.w3.org/2000/svg" xmlns:xlink="http://www.w3.org/1999/xlink" x="0px" y="0px"
	 viewBox="0 0 36 36" style="enable-background:new 0 0 36 36;" xml:space="preserve">
<style type="text/css">
	.st0{fill:url(#Polygon_1_);}
	.st1{fill-rule:evenodd;clip-rule:evenodd;fill:#FFFFFF;}
</style>
<desc>Created with Sketch.</desc>
<g>
	
		<linearGradient id="Polygon_1_" gradientUnits="userSpaceOnUse" x1="-910.5973" y1="543.981" x2="-910.0973" y2="543.144" gradientTransform="matrix(31.1769 0 0 -34.7624 28398.8887 18911.7969)">
		<stop  offset="0" style="stop-color:#A3EAFF"/>
		<stop  offset="1" style="stop-color:#62C4F5"/>
	</linearGradient>
	<path id="Polygon" class="st0" d="M20,1.2l11.6,6.7c1.2,0.7,2,2,2,3.5v13.4c0,1.4-0.8,2.7-2,3.5L20,34.8c-1.2,0.7-2.8,0.7-4,0
		L4.4,28.2c-1.2-0.7-2-2-2-3.5V11.3c0-1.4,0.8-2.7,2-3.5L16,1.2C17.2,0.4,18.8,0.4,20,1.2z"/>
	<path id="B" class="st1" d="M21.5,22.8c0.4-0.4,0.6-0.9,0.6-1.5c0-0.6-0.2-1.1-0.6-1.5C21.1,19.3,20.6,19,20,19h-4.4v4.4H20
		C20.6,23.4,21.1,23.2,21.5,22.8z M15.6,16.4h3.5c0.6,0,1.2-0.2,1.5-0.6c0.4-0.4,0.6-0.9,0.6-1.5c0-0.3-0.1-0.6-0.2-0.9
		c-0.1-0.3-0.3-0.5-0.5-0.7h0c-0.4-0.4-0.9-0.6-1.5-0.6h-3.5V16.4z M22.8,17.4c0.1,0.1,0.2,0.1,0.3,0.2c0.1,0.1,0.2,0.2,0.3,0.2
		c0.4,0.5,0.8,1,1,1.5c0.3,0.6,0.4,1.2,0.4,1.9c0,0.7-0.1,1.3-0.4,1.9c-0.3,0.6-0.6,1.1-1,1.5c-0.4,0.4-0.9,0.8-1.5,1
		c-0.6,0.3-1.2,0.4-1.9,0.4h-5.7c-0.4,0-0.7-0.1-0.9-0.4c-0.3-0.3-0.4-0.6-0.4-0.9v-14c0-0.4,0.1-0.7,0.4-0.9
		c0.3-0.3,0.6-0.4,0.9-0.4h4.8c0.7,0,1.3,0.1,1.9,0.3c0.6,0.2,1.1,0.6,1.5,1.1c0.4,0.5,0.8,1,1,1.5c0.3,0.6,0.4,1.2,0.4,1.9
		c0,0.6-0.1,1.2-0.3,1.7S23.2,16.9,22.8,17.4z"/>
</g>
</svg>
