<?xml version="1.0" encoding="utf-8"?>
<!-- Generator: Adobe Illustrator 24.2.0, SVG Export Plug-In . SVG Version: 6.00 Build 0)  -->
<svg version="1.1" id="图层_1" xmlns="http://www.w3.org/2000/svg" xmlns:xlink="http://www.w3.org/1999/xlink" x="0px" y="0px"
	 viewBox="0 0 36 36" style="enable-background:new 0 0 36 36;" xml:space="preserve">
<style type="text/css">
	.st0{fill-rule:evenodd;clip-rule:evenodd;fill-opacity:0;}
	.st1{fill-rule:evenodd;clip-rule:evenodd;fill:url(#Combined-Shape_1_);}
	.st2{fill:#FFF280;}
</style>
<desc>Created with Sketch.</desc>
<rect id="Rectangle" class="st0" width="36" height="36"/>
<g>
	
		<linearGradient id="Combined-Shape_1_" gradientUnits="userSpaceOnUse" x1="-909.5273" y1="542.7523" x2="-908.7889" y2="541.7523" gradientTransform="matrix(30 0 0 -32 27292 17369)">
		<stop  offset="0" style="stop-color:#BAF5BB"/>
		<stop  offset="1" style="stop-color:#8BD993"/>
	</linearGradient>
	<path id="Combined-Shape" class="st1" d="M22.9,18c3.4,2.1,7.1,5.8,7.1,10v3h1.5c0.8,0,1.5,0.7,1.5,1.5S32.3,34,31.5,34h-27
		C3.7,34,3,33.3,3,32.5S3.7,31,4.5,31H6v-3c0-4.2,3.7-7.9,7.1-10C9.7,15.9,6,12.2,6,8V5H4.5C3.7,5,3,4.3,3,3.5S3.7,2,4.5,2h27
		C32.3,2,33,2.7,33,3.5S32.3,5,31.5,5H30v3C30,12.2,26.3,15.9,22.9,18z"/>
	<g>
		<path class="st2" d="M25.4,29.1l-6.2-2.6c-0.7-0.3-1.6-0.3-2.3,0l-6.2,2.6C10.2,29.2,10,29.6,10,30c0,0.6,0.4,1,1,1h14
			c0.4,0,0.8-0.2,0.9-0.6C26.1,29.9,25.9,29.3,25.4,29.1z"/>
		<circle class="st2" cx="18" cy="14" r="2"/>
		<path class="st2" d="M17,19v3c0,0.6,0.4,1,1,1s1-0.4,1-1v-3c0-0.6-0.4-1-1-1S17,18.4,17,19z"/>
	</g>
</g>
</svg>
