<?xml version="1.0" encoding="utf-8"?>
<!-- Generator: Adobe Illustrator 24.2.0, SVG Export Plug-In . SVG Version: 6.00 Build 0)  -->
<svg version="1.1" id="图层_1" xmlns="http://www.w3.org/2000/svg" xmlns:xlink="http://www.w3.org/1999/xlink" x="0px" y="0px"
	 viewBox="0 0 36 36" style="enable-background:new 0 0 36 36;" xml:space="preserve">
<style type="text/css">
	.st0{fill:url(#SVGID_1_);}
	.st1{fill:#FFEAED;}
</style>
<desc>Created with Sketch.</desc>
<g>
	
		<linearGradient id="SVGID_1_" gradientUnits="userSpaceOnUse" x1="3.3517" y1="36.0711" x2="34.6292" y2="4.7937" gradientTransform="matrix(1 0 0 -1 0 38)">
		<stop  offset="0" style="stop-color:#FFCCD7"/>
		<stop  offset="1" style="stop-color:#FF8095"/>
	</linearGradient>
	<path class="st0" d="M18,0.5c-8.8,0-16,7.2-16,16c0,8,5.8,14.6,13.4,15.8l-0.6,1.9c-0.1,0.3-0.1,0.5,0.1,0.8
		c0.3,0.5,0.9,0.7,1.3,0.4l8.6-4.4l1-0.5c4.9-2.7,8.3-8,8.3-14C34,7.7,26.8,0.5,18,0.5z"/>
	<path id="Combined-Shape_1_" class="st1" d="M8.5,16.5c0-0.8,0.7-1.5,1.5-1.5s1.5,0.7,1.5,1.5c0,3.6,2.9,6.5,6.5,6.5
		c1.8,0,3.5-0.7,4.7-2c0.6-0.6,1.5-0.6,2.1-0.1c0.6,0.6,0.6,1.5,0.1,2.1c-1.8,1.9-4.3,3-6.9,3C12.8,26,8.5,21.8,8.5,16.5z M26,18.5
		c-1.1,0-2-0.9-2-2s0.9-2,2-2s2,0.9,2,2S27.1,18.5,26,18.5z"/>
</g>
</svg>
