<?xml version="1.0" standalone="no"?><!DOCTYPE svg PUBLIC "-//W3C//DTD SVG 1.1//EN" "http://www.w3.org/Graphics/SVG/1.1/DTD/svg11.dtd"><svg t="1595406345781" class="icon" viewBox="0 0 1024 1024" version="1.1" xmlns="http://www.w3.org/2000/svg" p-id="3962" xmlns:xlink="http://www.w3.org/1999/xlink" width="200" height="200"><defs><style type="text/css"></style></defs><path d="M298.666667 174.933333c12.8-8.533333 29.866667-8.533333 42.666666 0 8.533333 4.266667 17.066667 12.8 25.6 21.333334L469.333333 290.133333h72.533334l102.4-93.866666c8.533333-8.533333 17.066667-17.066667 25.6-21.333334 25.6-4.266667 38.4-4.266667 55.466666 4.266667 12.8 8.533333 21.333333 21.333333 25.6 38.4 0 12.8-4.266667 25.6-12.8 34.133333l-21.333333 21.333334-12.8 12.8H768c29.866667 0 55.466667 12.8 76.8 34.133333s34.133333 46.933333 34.133333 81.066667v307.2c0 17.066667 0 29.866667-4.266666 46.933333-8.533333 29.866667-25.6 59.733333-51.2 76.8-17.066667 12.8-38.4 17.066667-59.733334 17.066667H285.866667c-17.066667 0-29.866667 0-46.933334-4.266667-29.866667-8.533333-55.466667-25.6-72.533333-55.466667-12.8-17.066667-17.066667-38.4-17.066667-59.733333V422.4v-42.666667c8.533333-51.2 51.2-93.866667 102.4-93.866666h68.266667c-8.533333-4.266667-17.066667-17.066667-29.866667-25.6-12.8-12.8-17.066667-25.6-17.066666-42.666667 4.266667-17.066667 12.8-34.133333 25.6-42.666667zM290.133333 384c-21.333333 4.266667-34.133333 17.066667-42.666666 38.4v277.333333c0 25.6 12.8 46.933333 34.133333 55.466667 8.533333 4.266667 12.8 4.266667 21.333333 4.266667H725.333333c21.333333 0 38.4-12.8 51.2-29.866667 4.266667-12.8 4.266667-21.333333 4.266667-34.133333v-234.666667-25.6c-4.266667-17.066667-17.066667-29.866667-34.133333-38.4-8.533333-12.8-21.333333-12.8-34.133334-12.8H290.133333z m81.066667 85.333333c12.8 0 25.6 4.266667 38.4 12.8 12.8 8.533333 17.066667 25.6 17.066667 42.666667v55.466667c0 12.8-4.266667 25.6-12.8 34.133333-12.8 12.8-29.866667 21.333333-46.933334 21.333333-17.066667 0-34.133333-12.8-42.666666-25.6-4.266667-12.8-8.533333-25.6-8.533334-38.4v-55.466666c8.533333-25.6 25.6-42.666667 55.466667-46.933334z m277.333333 0c12.8 0 29.866667 4.266667 38.4 12.8 12.8 8.533333 17.066667 25.6 17.066667 38.4v55.466667c0 12.8 0 25.6-8.533333 38.4-8.533333 17.066667-25.6 25.6-42.666667 25.6s-34.133333-8.533333-42.666667-25.6c-8.533333-12.8-8.533333-25.6-8.533333-38.4v-55.466667c0-25.6 21.333333-46.933333 46.933333-51.2z" p-id="3963" fill="#e6e6e6"></path></svg>
