<?xml version="1.0" standalone="no"?><!DOCTYPE svg PUBLIC "-//W3C//DTD SVG 1.1//EN" "http://www.w3.org/Graphics/SVG/1.1/DTD/svg11.dtd"><svg t="1533197251170" class="icon" style="" viewBox="0 0 1024 1024" version="1.1" xmlns="http://www.w3.org/2000/svg" p-id="4458" xmlns:xlink="http://www.w3.org/1999/xlink" width="200" height="200"><defs><style type="text/css"></style></defs><path d="M747.054545 474.717091l4.189091 17.733818-91.089454 46.731636-101.841455-174.126545 12.008728-12.660364c14.754909-15.639273 23.179636-36.491636 23.179636-58.786909C593.454545 247.016727 556.869818 209.454545 512 209.454545s-81.454545 37.562182-81.454545 84.154182c0 22.295273 8.424727 43.194182 23.179636 58.786909l12.008727 12.660364-101.841454 174.126545L272.756364 492.450909l4.189091-17.733818a86.574545 86.574545 0 0 0 2.327272-20.014546c0-46.592-36.584727-84.154182-81.454545-84.154181S116.363636 408.110545 116.363636 454.702545s36.584727 84.154182 81.454546 84.154182l4.282182-0.093091 17.268363-0.930909 82.897455 230.539637c10.007273 27.694545 36.258909 46.173091 65.722182 46.173091h288.023272a69.818182 69.818182 0 0 0 65.675637-46.173091l82.897454-230.539637 17.268364 0.930909c1.442909 0.093091 2.839273 0.093091 4.282182 0.093091 44.869818 0 81.454545-37.562182 81.454545-84.154182s-36.584727-84.154182-81.454545-84.154181S744.727273 408.110545 744.727273 454.702545c0 6.842182 0.791273 13.544727 2.327272 20.014546z" fill="#FFE942" p-id="4459"></path><path d="M656.011636 837.818182H367.988364c-39.098182 0-74.333091-24.715636-87.598546-61.533091l-77.079273-214.295273-5.492363 0.139637C140.055273 562.129455 93.090909 513.954909 93.090909 454.702545c0-59.205818 46.964364-107.426909 104.727273-107.426909S302.545455 395.496727 302.545455 454.702545c0 8.610909-0.977455 17.128727-2.932364 25.367273l55.296 28.346182 81.92-140.055273a108.264727 108.264727 0 0 1-29.556364-74.752C407.272727 234.356364 454.237091 186.181818 512 186.181818c57.716364 0 104.727273 48.174545 104.727273 107.426909 0 28.113455-10.519273 54.644364-29.556364 74.798546l81.92 140.055272 55.296-28.346181a109.847273 109.847273 0 0 1-2.932364-25.367273c0-59.205818 47.010909-107.426909 104.727273-107.426909S930.909091 395.496727 930.909091 454.702545c0 59.252364-47.010909 107.426909-104.727273 107.42691l-5.538909-0.186182-77.032727 214.295272A93.323636 93.323636 0 0 1 656.011636 837.818182z m-420.584727-324.142546l88.762182 246.830546c6.609455 18.385455 24.250182 30.766545 43.799273 30.766545h288.023272a46.545455 46.545455 0 0 0 43.752728-30.766545l88.762181-246.830546 34.583273 1.815273h0.186182c35.048727 0 61.067636-27.275636 61.067636-60.788364 0-33.559273-26.112-60.881455-58.181818-60.881454s-58.181818 27.322182-58.181818 60.881454c0 4.980364 0.558545 9.914182 1.675636 14.615273v0.046546l8.378182 35.467636-126.882909 65.117091-121.809454-208.197818 24.017454-25.367273a61.905455 61.905455 0 0 0 16.802909-42.775273C570.181818 260.002909 544.069818 232.727273 512 232.727273s-58.181818 27.275636-58.181818 60.881454c0 16.151273 5.957818 31.325091 16.802909 42.775273l24.017454 25.367273-121.762909 208.197818-126.929454-65.117091 8.378182-35.467636c1.117091-4.747636 1.675636-9.681455 1.675636-14.661819 0-33.559273-26.112-60.881455-58.181818-60.881454S139.636364 421.143273 139.636364 454.702545s26.112 60.881455 58.181818 60.881455l37.608727-1.908364z" fill="#FFB600" p-id="4460"></path></svg>