<?xml version="1.0" standalone="no"?><!DOCTYPE svg PUBLIC "-//W3C//DTD SVG 1.1//EN" "http://www.w3.org/Graphics/SVG/1.1/DTD/svg11.dtd"><svg t="1628653438731" class="icon" viewBox="0 0 1024 1024" version="1.1" xmlns="http://www.w3.org/2000/svg" p-id="1867" width="20" height="20" xmlns:xlink="http://www.w3.org/1999/xlink"><defs><style type="text/css"></style></defs><path d="M560.341333 756.650667a48.341333 48.341333 0 1 0-96.682666 0v133.717333a48.341333 48.341333 0 0 0 96.682666 0v-133.717333zM560.341333 132.565333a48.384 48.384 0 0 0-96.682666 0v134.826667a48.384 48.384 0 0 0 96.682666 0V132.565333zM813.653333 745.301333l-94.421333-94.464h-0.085333a48.298667 48.298667 0 1 0-68.352 68.352l94.506666 94.549334a48.426667 48.426667 0 0 0 68.394667-68.394667l-0.042667-0.085333zM209.493333 277.930667l95.317334 95.274666v0.042667a48.384 48.384 0 0 0 68.394666-68.394667L278.741333 210.346667 278.613333 210.346667l-0.768-0.768A48.341333 48.341333 0 0 0 209.493333 277.930667zM890.282667 463.658667H756.608a48.341333 48.341333 0 1 0 0 96.725333h133.674667a48.384 48.384 0 0 0 0-96.725333zM267.349333 560.384a48.384 48.384 0 0 0 0-96.725333H132.565333a48.384 48.384 0 0 0 0 96.682666v0.042667h134.784zM719.146667 373.248l94.549333-94.506667a48.384 48.384 0 0 0-68.394667-68.437333l-0.042666 0.085333-94.421334 94.421334h-0.042666a48.384 48.384 0 0 0 68.352 68.437333zM304.810667 650.794667L210.346667 745.301333h-0.042667l-0.085333 0.085334-0.725334 0.725333a48.384 48.384 0 0 0 68.394667 68.394667l95.317333-95.317334a48.298667 48.298667 0 1 0-68.394666-68.394666z" fill="#ffffff" p-id="1868"></path></svg>